<svg xmlns="http://www.w3.org/2000/svg" xmlns:xlink="http://www.w3.org/1999/xlink" width="56" height="56" viewBox="0 0 56 56" fill="none"><g opacity="1" transform="translate(0 0)  rotate(0 28 28)"><path id="椭圆 2" fill-rule="evenodd" style="fill:#5C33BE" transform="translate(0 0)  rotate(0 28 28)" opacity="1" d="M28,0C12.54,0 0,12.54 0,28C0,43.46 12.54,56 28,56C43.46,56 56,43.46 56,28C56,12.54 43.46,0 28,0Z " /><path id="add-bold" fill-rule="evenodd" style="fill:#FFFFFF" transform="translate(16.607208251953125 16.607330322265625)  rotate(0 11.392684936523452 11.392684936523452)" opacity="1" d="M11.39,22.79C12.05,22.79 12.59,22.25 12.59,21.59L12.59,12.59L21.59,12.59C22.25,12.59 22.79,12.05 22.79,11.39C22.79,10.73 22.25,10.19 21.59,10.19L12.59,10.19L12.59,1.2C12.59,0.54 12.05,0 11.39,0C10.73,0 10.19,0.54 10.19,1.2L10.19,10.19L1.2,10.19C0.54,10.19 0,10.73 0,11.39C0,12.05 0.54,12.59 1.2,12.59L10.19,12.59L10.19,21.59C10.19,22.25 10.73,22.79 11.39,22.79Z " /></g></svg>