<svg xmlns="http://www.w3.org/2000/svg" xmlns:xlink="http://www.w3.org/1999/xlink" width="129" height="151" viewBox="0 0 129 151" fill="none"><g opacity="1" transform="translate(0.00000762939453125 0.000011444091626344743)  rotate(0 64.26870727539065 75.26519440438321)"><path id="路径 36" fill-rule="evenodd" style="fill:#FFBAB0" transform="translate(4.95551109313962 4.059101104736477)  rotate(0 59.33016204833986 59.33014965057373)" opacity="1" d="M59.33 0C92.1 0 118.66 26.56 118.66 59.33C118.66 92.1 92.1 118.66 59.33 118.66C26.56 118.66 0 92.1 0 59.33C0 26.56 26.56 0 59.33 0Z" /><path id="路径 37" fill-rule="evenodd" style="fill:#783741" transform="translate(2.2494219777710356 1.353098392486721)  rotate(0 62.03617148410644 62.036170959472656)" opacity="1" d="M62.02 124.07Z M124.07 62.03C124.07 27.77 96.3 0 62.03 0C27.77 0 0 27.78 0 62.02C-0.01 96.28 27.76 124.06 62.02 124.07C96.27 124.04 124.04 96.29 124.07 62.03Z M5.39514 62.0721C5.40514 93.3521 30.7751 118.702 62.0551 118.692C93.3351 118.682 118.685 93.3221 118.675 62.0321C118.635 30.7621 93.2851 5.43214 62.0151 5.41214C30.7351 5.42214 5.38514 30.7921 5.39514 62.0721Z " /><path id="路径 38" fill-rule="evenodd" style="fill:#FFFFFF" transform="translate(10.33373121994319 7.320123654942812)  rotate(0 18.054402090223732 17.455637940595075)" opacity="1" d="M0 18.83C-0.01 9.89 6.28 2.18 15.04 0.38C23.79 -1.41 32.6 3.21 36.11 11.44C24.08 15.44 15.97 25.47 7.93 34.91C4.53 31.51 0 24.02 0 18.83Z" /><path id="路径 39" fill-rule="evenodd" style="fill:#783741" transform="translate(6.291564145614274 3.2898598608587615)  rotate(0 22.09237794739589 21.491884338086706)" opacity="1" d="M11.97 42.98Z M43.85 13.86C39.58 3.88 28.89 -1.71 18.26 0.47C7.63 2.65 0 12.01 0 22.86C0 29.64 5.33 38.01 9.12 41.8C9.87 42.56 10.9 42.99 11.97 42.98L12.06 42.98C13.19 42.94 14.25 42.42 14.98 41.56L16.07 40.28C23.46 31.69 31.02 22.77 41.44 19.29C42.51 18.93 43.38 18.14 43.83 17.1C44.29 16.07 44.3 14.9 43.85 13.86Z M8.1012 22.8526C8.1012 25.4326 9.8912 29.4026 12.0412 32.6026C18.4312 25.1626 25.1812 17.8326 34.2612 13.4926C31.4612 10.0726 27.2712 8.09259 22.8512 8.09259C14.7012 8.11259 8.1112 14.7126 8.1012 22.8526Z " /><path id="路径 40" fill-rule="evenodd" style="fill:#FFFFFF" transform="translate(82.1285400390625 7.359686161046078)  rotate(0 18.0460205078125 17.22445570182567)" opacity="1" d="M0,11.4C12.03,15.41 21.31,25.01 29.33,34.45C33.28,30.14 35.66,24.62 36.09,18.79C36.08,9.86 29.8,2.17 21.06,0.38C12.31,-1.41 3.52,3.19 0,11.4L0,11.4Z " /><path id="路径 41" fill-rule="evenodd" style="fill:#783741" transform="translate(78.0799685749871 3.3157729127970152)  rotate(0 22.099770961529885 21.267948781716346)" opacity="1" d="M2.76 19.26C13.76 22.95 22.5 31.95 30.33 41.11C31.06 41.97 32.11 42.49 33.24 42.53L33.41 42.53C34.47 42.56 35.5 42.16 36.27 41.44C40.16 37.44 44.2 29.46 44.2 22.83C44.18 11.99 36.55 2.65 25.93 0.47C15.3 -1.71 4.61 3.87 0.33 13.83C-0.12 14.87 -0.11 16.05 0.35 17.08C0.82 18.11 1.69 18.91 2.76 19.26Z M9.95113 13.4269C9.95113 13.4269 9.95113 13.4269 9.95113 13.4269C9.95113 13.4269 9.95113 13.4269 9.95113 13.4269Z M33.1511 32.0369C34.8511 29.2369 35.8611 26.0769 36.1011 22.8169C36.0911 16.5869 32.1811 11.0369 26.3211 8.93688C20.4611 6.83688 13.9111 8.62688 9.95113 13.4269C19.0311 17.6369 26.4911 24.6069 33.1511 32.0369Z " /><path id="路径 42" fill-rule="evenodd" style="fill:#FFBAB0" transform="translate(26.519256591796847 110.59303665161147)  rotate(0 11.221679687500014 17.978240966796875)" opacity="1" d="M0.03 35.96L0 0L22.44 13.55L0.03 35.96Z" /><path id="路径 43" fill-rule="evenodd" style="fill:#783741" transform="translate(22.51092529296875 106.55581170748101)  rotate(0 15.263970791395593 21.984539589727603)" opacity="1" d="M6.14 0.59C4.9 -0.16 3.36 -0.2 2.09 0.5C0.82 1.2 0.03 2.52 0 3.97L0 39.93C0 42.16 1.81 43.97 4.04 43.97L4.04 43.97C5.1 43.99 6.13 43.59 6.9 42.85L29.34 20.48C30.23 19.59 30.66 18.34 30.49 17.09C30.34 15.86 29.64 14.77 28.58 14.12L6.14 0.59Z M8.0674 11.1404Z M19.9074 18.4004L8.0674 11.1404L8.0674 30.2304L19.9074 18.4004Z " /><path id="路径 44" fill-rule="evenodd" style="fill:#FFBAB0" transform="translate(80.96157836914062 110.59303665161147)  rotate(0 11.213226318359375 17.978240966796875)" opacity="1" d="M22.43 0L22.39 35.96L0 13.55L22.43 0Z" /><path id="路径 45" fill-rule="evenodd" style="fill:#783741" transform="translate(76.91221052316735 106.55310252893108)  rotate(0 15.259028405408515 21.98632095972829)" opacity="1" d="M1.19 20.45L23.58 42.79C24.34 43.55 25.37 43.97 26.44 43.97C26.95 43.99 27.46 43.9 27.95 43.73C29.49 43.13 30.5 41.65 30.52 40L30.52 3.97C30.5 2.53 29.71 1.2 28.44 0.5C27.17 -0.2 25.63 -0.16 24.4 0.59L1.95 14.12C0.89 14.76 0.18 15.86 0.03 17.1C-0.12 18.33 0.31 19.57 1.19 20.45Z M10.5608 18.3808Z M22.4008 11.2108L10.5608 18.3808L22.4008 30.2208L22.4008 11.2108Z " /><path id="路径 46" fill-rule="evenodd" style="fill:#FFBAB0" transform="translate(4.95551109313962 14.84951400756848)  rotate(0 59.33016204833986 59.33015823364259)" opacity="1" d="M59.33,118.66C92.1,118.66 118.66,92.1 118.66,59.33C118.66,26.56 92.1,0 59.33,0C26.56,0 0,26.56 0,59.33C0,92.1 26.56,118.66 59.33,118.66Z " /><path id="路径 47" fill-rule="evenodd" style="fill:#783741" transform="translate(2.2494219777710356 12.143482208252102)  rotate(0 62.03617148410644 62.03617858886719)" opacity="1" d="M62.02 124.07Z M124.07 62.03C124.07 27.77 96.3 0 62.03 0C27.77 0 0 27.78 0 62.02C-0.01 96.28 27.76 124.06 62.02 124.07C96.27 124.04 124.04 96.29 124.07 62.03Z M5.39514 62.0451C5.39514 93.3151 30.7551 118.675 62.0351 118.675C93.3151 118.675 118.675 93.3251 118.675 62.0451C118.655 30.7651 93.2951 5.41513 62.0151 5.39513C30.7351 5.40513 5.38514 30.7651 5.39514 62.0451Z " /><path id="路径 48" fill-rule="evenodd" style="fill:#783741" transform="translate(0 0)  rotate(0 64.26870727539065 75.26519440438321)" opacity="1" d="M22.44 146.48C22.44 148.08 23.38 149.54 24.85 150.18C26.31 150.83 28.02 150.55 29.21 149.48L44.43 135.69C51.03 137.53 57.87 138.36 64.73 138.16C71.83 138.28 78.9 137.24 85.66 135.08L100.56 149.39C101.31 150.12 102.31 150.53 103.35 150.52L103.35 150.52C103.89 150.55 104.43 150.46 104.93 150.27C106.42 149.63 107.39 148.17 107.4 146.55L107.4 122.72C120.6 109.98 128.2 92.52 128.54 74.18L128.54 63.39C128.3 53.2 125.57 43.22 120.59 34.33C121.62 31.72 122.19 28.95 122.28 26.15C122.27 18.36 118.31 11.12 111.76 6.92C105.21 2.72 96.97 2.14 89.89 5.38C73.57 -1.79 55 -1.79 38.68 5.38C31.6 2.14 23.37 2.72 16.81 6.92C10.26 11.12 6.3 18.36 6.29 26.15C6.38 28.85 7.01 31.51 8.14 33.98C3.03 42.95 0.23 53.06 0 63.39L0 74.18C0.36 93.04 8.48 110.93 22.44 123.62L22.44 146.48Z M99.3243 136.994L99.3243 120.924C99.3343 119.764 99.8243 118.654 100.694 117.884C113.024 106.664 120.174 90.8436 120.474 74.1836L120.474 63.3936C120.474 54.9336 117.834 45.9036 112.624 36.5536C112.014 35.4436 111.944 34.1036 112.454 32.9436C113.454 30.8236 114.024 28.5236 114.144 26.1836C114.154 20.9036 111.334 16.0236 106.764 13.3836C102.184 10.7536 96.5543 10.7636 91.9843 13.4136C90.8343 14.0636 89.4343 14.1036 88.2343 13.5336C73.0943 6.26364 55.4743 6.26364 40.3343 13.5336C39.1243 14.1136 37.7043 14.0636 36.5443 13.3736C34.2943 12.0736 31.7443 11.3836 29.1443 11.3836C20.9943 11.4036 14.4043 18.0036 14.3943 26.1436C14.5743 28.3236 15.2243 30.4336 16.2843 32.3336C16.8843 33.5436 16.8443 34.9536 16.1843 36.1236C10.8043 45.6636 8.08427 54.7436 8.08427 63.3936L8.08427 74.1836C8.39427 91.3436 16.0443 107.554 29.1043 118.694C30.0143 119.464 30.5443 120.584 30.5643 121.774L30.5643 137.364L40.7043 128.114C41.8243 127.084 43.4343 126.774 44.8543 127.324C49.9243 129.234 56.0643 130.094 64.6543 130.094C71.6243 130.284 78.5543 129.134 85.0843 126.714C86.5643 126.134 88.2343 126.464 89.3843 127.554L99.3243 136.994Z " /><path id="路径 49" fill-rule="evenodd" style="fill:#FFFFFF" transform="translate(19.787895202636776 29.682010650634915)  rotate(0 44.49765014655446 44.4976806640625)" opacity="1" d="M44.5,89C69.07,89 89,69.07 89,44.5C89,19.92 69.07,0 44.5,0C19.92,0 0,19.92 0,44.5C0,69.07 19.92,89 44.5,89Z " /><path id="路径 50" fill-rule="evenodd" style="fill:#783741" transform="translate(17.065093650337275 26.959155695935472)  rotate(0 47.20360599230504 47.20362871025988)" opacity="1" d="M47.2 94.41C73.26 94.38 94.38 73.27 94.41 47.21C94.41 21.14 73.28 0 47.21 0C21.14 0 0 21.13 0 47.2C0 73.27 21.13 94.41 47.2 94.41Z M47.202 5.41203Z M47.222 89.032C70.312 89.032 89.022 70.312 89.032 47.222C89.002 24.142 70.292 5.43203 47.202 5.41203C24.112 5.42203 5.40202 24.142 5.41202 47.232C5.42202 70.322 24.142 89.032 47.222 89.032Z " /><path id="路径 51" fill-rule="evenodd" style="fill:#783741" transform="translate(61.55413458400494 44.199405670166165)  rotate(0 14.941331755849092 16.334739685058594)" opacity="1" d="M4.12,0.4C3.25,-0.13 2.16,-0.13 1.29,0.4C0.42,0.93 -0.07,1.91 0.01,2.92L0.01,29.98C0.02,31.47 1.23,32.67 2.71,32.67L27.39,32.67L27.39,32.67C28.8,32.56 29.88,31.38 29.88,29.97C29.88,28.56 28.8,27.39 27.39,27.27L5.4,27.27L5.4,2.92C5.48,1.91 4.99,0.93 4.12,0.4Z " /><path id="路径 52" fill-rule="evenodd" style="fill:#FFBAB0" transform="translate(58.11242675781256 68.00648880004897)  rotate(0 6.1732177734375 6.1731719970703125)" opacity="1" d="M6.17 0C9.58 0 12.35 2.76 12.35 6.17C12.35 9.58 9.58 12.35 6.17 12.35C2.76 12.35 0 9.58 0 6.17C0 2.76 2.76 0 6.17 0Z" /><path id="路径 53" fill-rule="evenodd" style="fill:#783741" transform="translate(55.4063720703125 65.31734085083028)  rotate(0 8.8623046875 8.8623046875)" opacity="1" d="M8.86 17.72Z M17.72 8.86C17.72 3.97 13.76 0 8.86 0C3.97 0 0 3.97 0 8.86C0 13.76 3.97 17.72 8.86 17.72C13.75 17.72 17.72 13.75 17.72 8.86Z M8.86432 5.39517Z M8.97432 12.1552C10.8343 12.1452 12.3243 10.6352 12.3343 8.77517C12.2843 6.89517 10.7443 5.39517 8.86432 5.39517C7.00432 5.44517 5.53432 6.97517 5.56432 8.83517C5.59432 10.6852 7.11432 12.1752 8.97432 12.1552Z " /><path id="路径 54" fill-rule="evenodd" style="fill:#783741" transform="translate(26.04562862864509 35.95663985541055)  rotate(0 38.23148723160904 38.22297165678313)" opacity="1" d="M40.7108 2.45C40.7008 1.09 39.5908 -0.01 38.2208 0C36.8608 0.01 35.7608 1.12 35.7708 2.49C35.7808 3.85 36.8908 4.95 38.2608 4.94C39.6208 4.93 40.7208 3.82 40.7108 2.45L40.7108 2.45Z M76.4644 38.2237Z M75.7444 36.4737C75.2844 36.0037 74.6544 35.7537 73.9944 35.7537C72.6344 35.7537 71.5244 36.8637 71.5244 38.2237C71.5244 39.5837 72.6344 40.6937 73.9944 40.6937C75.3544 40.6937 76.4644 39.5837 76.4644 38.2237C76.4644 37.5637 76.2044 36.9337 75.7444 36.4737Z M40.7108 73.9775C40.7108 73.9775 40.7108 73.9775 40.7108 73.9775L40.7108 73.9775C40.7108 73.9775 40.7108 73.9775 40.7108 73.9775Z M38.2208 71.5075C36.8608 71.5175 35.7608 72.6275 35.7708 73.9875C35.7808 75.3475 36.8808 76.4475 38.2408 76.4475C39.6108 76.4475 40.7108 75.3375 40.7108 73.9775C40.7008 72.6075 39.5908 71.5075 38.2208 71.5075Z M4.94 38.2237Z M4.23 36.4737C3.77 36.0137 3.14 35.7537 2.49 35.7537C1.49 35.7437 0.58 36.3437 0.19 37.2637C-0.19 38.1837 0.01 39.2537 0.72 39.9637C1.42 40.6737 2.49 40.8837 3.41 40.5037C4.34 40.1237 4.94 39.2237 4.94 38.2237C4.94 37.5737 4.69 36.9437 4.23 36.4737Z " /></g></svg>