<?xml version="1.0" standalone="no"?><!DOCTYPE svg PUBLIC "-//W3C//DTD SVG 1.1//EN" "http://www.w3.org/Graphics/SVG/1.1/DTD/svg11.dtd"><svg t="1673576920975" class="icon" viewBox="0 0 1024 1024" version="1.1" xmlns="http://www.w3.org/2000/svg" p-id="5693" xmlns:xlink="http://www.w3.org/1999/xlink" width="200" height="200"><path d="M828.16 892.3648H288.512c-46.2848 0-83.7632-37.5296-83.7632-83.7632V356.7616c0-46.2848 37.5296-83.7632 83.7632-83.7632h539.5968c46.2848 0 83.7632 37.5296 83.7632 83.7632v451.84c0.0512 46.2336-37.4784 83.7632-83.712 83.7632z" fill="#80B7F9" p-id="5694"></path><path d="M780.9536 157.696h-79.872v-45.0048c0-16.9472-13.7728-30.72-30.72-30.72s-30.72 13.7728-30.72 30.72v45.0048H388.7104v-45.0048c0-16.9472-13.7728-30.72-30.72-30.72s-30.72 13.7728-30.72 30.72v45.0048H250.5216c-89.1904 0-161.6896 72.5504-161.6896 161.6896v441.9584c0 89.1904 72.5504 161.6896 161.6896 161.6896h530.432c89.1904 0 161.6896-72.5504 161.6896-161.6896V319.3856c0-89.1392-72.5504-161.6896-161.6896-161.6896z m-530.432 61.44h76.7488v53.8624c0 16.9472 13.7728 30.72 30.72 30.72s30.72-13.7728 30.72-30.72V219.136h250.9312v53.8624c0 16.9472 13.7728 30.72 30.72 30.72s30.72-13.7728 30.72-30.72V219.136h79.872c55.296 0 100.2496 45.0048 100.2496 100.2496v71.2192H150.2208V319.3856c0-55.296 45.0048-100.2496 100.3008-100.2496z m530.432 642.5088H250.5216c-55.296 0-100.2496-45.0048-100.2496-100.2496V452.0448h730.9824v309.2992c-0.0512 55.296-45.056 100.3008-100.3008 100.3008z" fill="#5D5D66" p-id="5695"></path><path d="M689.1008 548.5056H338.3296c-16.9472 0-30.72 13.7728-30.72 30.72s13.7728 30.72 30.72 30.72h350.8224c16.9472 0 30.72-13.7728 30.72-30.72s-13.7728-30.72-30.7712-30.72zM527.0528 706.2528H338.3296c-16.9472 0-30.72 13.7728-30.72 30.72s13.7728 30.72 30.72 30.72h188.7232c16.9472 0 30.72-13.7728 30.72-30.72s-13.7728-30.72-30.72-30.72z" fill="#5D5D66" p-id="5696"></path></svg>