<svg xmlns="http://www.w3.org/2000/svg" xmlns:xlink="http://www.w3.org/1999/xlink" width="130" height="109" viewBox="0 0 130 109" fill="none"><g opacity="1" transform="translate(-0.000003814697265625 0.0000133514404296875)  rotate(0 64.8687906497387 54.13395023345947)"><path id="路径 33" fill-rule="evenodd" style="fill:#CAE4FF" transform="translate(8.318019866943402 30.889772415161133)  rotate(0 57.95074462890624 37.27197265625)" opacity="1" d="M0 53.8293Z M0 74.5393L16.56 74.5393L16.56 53.8293L0 53.8293L0 74.5393Z M33.1147 20.7146Z M33.1147 74.5446L49.6747 74.5446L49.6747 20.7146L33.1147 20.7146L33.1147 74.5446Z M62.1438 37.272Z M62.1438 74.542L78.7038 74.542L78.7038 37.272L62.1438 37.272L62.1438 74.542Z M99.3441 0Z M99.3441 70.39L115.904 70.39L115.904 0L99.3441 0L99.3441 70.39Z " /><path id="路径 34" fill-rule="evenodd" style="fill:#0972E7" transform="translate(8.018790079353167 0)  rotate(0 56.87224512060691 35.392385946822515)" opacity="1" d="M111.18 2.47C107.74 -0.82 102.29 -0.82 98.85 2.47C96.34 4.98 95.63 8.71 96.99 12.01L76.13 38.1C73.19 37.02 69.82 37.52 67.39 39.6L49.39 30.64C49.39 30.43 49.54 30.28 49.54 30.07C49.54 27.77 48.61 25.55 47.03 23.9C43.59 20.61 38.14 20.61 34.7 23.9C32.26 26.41 31.48 30.14 32.84 33.37L12.05 54.15C8.83 52.86 5.17 53.65 2.59 56.02C-0.85 59.38 -0.85 64.9 2.52 68.34C4.24 69.92 6.46 70.85 8.75 70.78C13.56 70.78 17.5 66.84 17.43 62.04C17.43 60.89 17.21 59.81 16.78 58.74L37.5 38.02C38.57 38.45 39.65 38.67 40.79 38.67C42.87 38.67 44.81 37.88 46.38 36.52L64.3 45.48C64.3 45.69 64.16 45.84 64.16 46.05C64.16 50.85 68.03 54.8 72.83 54.8C77.64 54.8 81.58 50.93 81.58 46.12C81.58 44.98 81.36 43.83 80.93 42.76L101.79 16.66C106.23 18.46 111.32 16.31 113.12 11.86C114.41 8.64 113.69 4.91 111.18 2.47Z M103.652 7.20264Z M103.652 10.0726C104.442 10.7826 105.662 10.7826 106.452 10.0726C107.162 9.28264 107.162 8.13264 106.452 7.34264C105.732 6.48264 104.442 6.48264 103.652 7.20264C102.862 7.99264 102.862 9.21264 103.652 10.0726Z M71.5412 44.6175Z M71.5412 47.4175C72.3312 48.1275 73.5512 48.1275 74.3412 47.4175C75.1312 46.6275 75.1312 45.4075 74.3412 44.6175C73.5512 43.8275 72.3312 43.8275 71.5412 44.6175C70.7512 45.4075 70.7512 46.6275 71.5412 47.4175Z M39.4275 28.5619Z M39.4275 31.3619C40.2175 32.0719 41.4375 32.0719 42.2275 31.3619C43.0175 30.5719 43.0175 29.3519 42.2275 28.5619C41.4375 27.7719 40.2175 27.7719 39.4275 28.5619C38.7875 29.3519 38.7875 30.6419 39.4275 31.3619Z M7.39001 60.6731Z M7.39001 63.4731C8.18001 64.1831 9.40001 64.1831 10.19 63.4731C10.98 62.7531 10.98 61.4631 10.19 60.6731C9.40001 59.8831 8.18001 59.8831 7.39001 60.6731C6.89001 61.5331 6.75001 62.7531 7.39001 63.4731Z " /><path id="路径 35" fill-rule="evenodd" style="fill:#0972E7" transform="translate(0 26.627946853637695)  rotate(0 64.8687906497387 40.819976806640625)" opacity="1" d="M5.38 56.84L5.38 74.9L3.37 74.9C1.51 74.9 0 76.41 0 78.27C0 80.13 1.51 81.64 3.37 81.64L126.37 81.64C128.23 81.64 129.74 80.13 129.74 78.27C129.81 76.41 128.3 74.9 126.44 74.9L124.43 74.9L124.43 3.37C124.43 1.51 122.93 0 121.06 0L105.01 0C103.14 0 101.64 1.51 101.64 3.37L101.64 74.9L92.32 74.9L92.32 40.78C92.32 38.92 90.81 37.42 88.95 37.42L72.9 37.42C71.03 37.42 69.53 38.92 69.53 40.78L69.53 74.9L60.28 74.9L60.28 24.8C60.28 22.94 58.78 21.43 56.91 21.43L40.86 21.43C38.99 21.43 37.49 22.94 37.49 24.8L37.49 74.9L28.17 74.9L28.17 56.84C28.17 54.98 26.66 53.47 24.8 53.47L8.74 53.47C6.88 53.47 5.38 54.98 5.38 56.84Z M12.1134 74.8986Z M21.4334 74.8986L21.4334 60.2086L12.1134 60.2086L12.1134 74.8986L21.4334 74.8986Z M44.2246 74.8973Z M53.5446 74.8973L53.5446 28.0973L44.2246 28.0973L44.2246 74.8973L53.5446 74.8973Z M76.3359 74.903Z M85.6559 74.903L85.6559 44.153L76.3359 44.153L76.3359 74.903L85.6559 74.903Z M108.447 74.8976Z M117.767 74.8976L117.767 6.73764L108.447 6.73764L108.447 74.8976L117.767 74.8976Z " /></g></svg>