<svg xmlns="http://www.w3.org/2000/svg" xmlns:xlink="http://www.w3.org/1999/xlink" width="130" height="84" viewBox="0 0 130 84" fill="none"><g opacity="1" transform="translate(-0.00002288818359375 0)  rotate(0 64.57913684844969 41.64002418518068)"><path id="路径 55" fill-rule="evenodd" style="fill:#98C4D8" transform="translate(4.166818618774371 4.167118072509766)  rotate(0 62.49572753906251 39.556465148925795)" opacity="1" d="M16.93,30.47C7.09,33.83 0,43.14 0,54.11C0,67.91 11.19,79.1 24.98,79.11L102.19,79.11L102.19,79.11C114.8,79.04 124.99,68.81 124.99,56.2C124.99,43.56 114.77,33.32 102.14,33.28C102.15,32.95 102.19,32.63 102.19,32.29C102.19,14.46 87.73,0 69.9,0C57.03,0 45.95,7.54 40.76,18.43C38.51,17.3 36.01,16.61 33.32,16.61C25.07,16.61 18.27,22.61 16.93,30.47Z " /><path id="路径 56" fill-rule="evenodd" style="fill:#EFD9A0" transform="translate(0 0)  rotate(0 62.49580001831055 39.55647277832034)" opacity="1" d="M102.19,79.11C114.8,79.04 124.99,68.81 124.99,56.2C124.99,43.56 114.77,33.32 102.14,33.28C102.15,32.95 102.19,32.63 102.19,32.29C102.19,14.46 87.73,0 69.9,0C57.03,0 45.95,7.54 40.76,18.43C38.51,17.3 36.01,16.61 33.32,16.61C25.07,16.61 18.27,22.61 16.93,30.47C7.09,33.83 0,43.14 0,54.11C0,67.91 11.19,79.1 24.98,79.11L102.19,79.11L102.19,79.11Z " /><path id="路径 57" fill-rule="evenodd" style="fill:#FEFEFE" transform="translate(43.307656673636586 18.441704206704316)  rotate(0 6.903042807960389 5.468132548436216)" opacity="1" d="M4.78 2.38C8.41 -0.11 12.3 -0.75 13.47 0.96C14.64 2.66 12.65 6.07 9.03 8.56C5.4 11.05 1.51 11.69 0.34 9.98C-0.84 8.27 1.15 4.87 4.78 2.38Z" /><path id="路径 58" fill-rule="evenodd" style="fill:#FEFEFE" transform="translate(35.32497481799942 35.83303436367888)  rotate(0 3.874028958263011 3.221411725625842)" opacity="1" d="M2.46 1.16C4.45 -0.21 6.7 -0.39 7.48 0.75C8.26 1.88 7.28 3.91 5.29 5.28C3.3 6.65 1.05 6.84 0.27 5.7C-0.51 4.56 0.47 2.53 2.46 1.16Z" /></g></svg>