<svg xmlns="http://www.w3.org/2000/svg" xmlns:xlink="http://www.w3.org/1999/xlink" width="65" height="69" viewBox="0 0 65 69" fill="none"><g opacity="1" transform="translate(0.00000779933770900243 0)  rotate(0 31.999995413346753 34.48402404785156)"><path id="路径 1" fill-rule="evenodd" style="fill:#ACACEF" transform="translate(1.1030954959203711 18.82772943601654)  rotate(0 30.89268281676567 24.51750569939604)" opacity="1" d="M59.79 14.02C67.62 35.86 50.43 45.05 41.83 47.68C33.24 50.3 3.92 51.53 0.39 27.75C-3.14 3.97 18.35 0.02 18.35 0.02C18.35 0.02 36.77 0.29 41.38 0.02C45.98 -0.26 55.65 2.76 59.79 14.02Z" /><path id="路径 2" fill-rule="evenodd" style="fill:#9E9AEA" transform="translate(1.1077455642429754 20.119354248046847)  rotate(0 27.823729233279224 23.87382280854588)" opacity="1" d="M10.72,25.56C8.03,14.87 12.33,3.68 12.33,3.68L14.52,0C8.4,2.48 -2.18,9.32 0.4,26.46C3.97,50.25 33.68,49.01 42.38,46.39C46.1,45.26 51.41,42.94 55.65,38.96C41.93,45.41 29.49,42.75 21.72,38.84C16.09,36.01 12.13,31.14 10.72,25.56Z " /><path id="路径 3" fill-rule="evenodd" style="fill:#000F04" transform="translate(0 10.694559102021742)  rotate(0 31.999995413346753 29.13674449684069)" opacity="1" d="M31.82,58.27C36.72,58.27 40.92,57.49 43.29,56.67C47.65,55.14 69.1,46.22 62.88,20.17C62.71,19.5 62.05,19.08 61.38,19.25C60.72,19.41 60.32,20.09 60.48,20.77C66.19,44.7 46.5,52.89 42.49,54.29C37.72,55.95 23.87,57.47 13.81,51.1C7.61,47.18 3.92,40.97 2.84,32.65C1.44,21.92 3.85,13.6 9.98,7.92C14.19,4.02 18.83,2.74 19.63,2.54C21.52,2.58 38.1,2.84 42.51,2.54C46.72,2.26 54.48,5.32 58.62,14.97C58.89,15.6 59.62,15.89 60.24,15.61C60.87,15.33 61.15,14.59 60.88,13.95C56.23,3.12 47.26,-0.31 42.35,0.02C37.87,0.32 19.71,0.02 19.52,0.02C19.43,0.01 19.34,0.03 19.25,0.04C19.02,0.09 13.52,1.29 8.42,5.97C3.72,10.28 -1.49,18.46 0.4,32.97C1.58,42.08 5.66,48.9 12.52,53.24C18.56,57.06 25.73,58.27 31.82,58.27L31.82,58.27Z " /><path id="路径 4" fill-rule="evenodd" style="fill:#BFE5BD" transform="translate(7.6747624231193186 5.361916578461631)  rotate(0 18.34968970015285 11.660923184001078)" opacity="1" d="M36.07,7.14C36.9,6.27 36.9,4.9 36.1,4C33.11,0.64 25.54,-3.61 18.46,5.39C18.23,5.68 17.8,5.71 17.53,5.46C15.36,3.42 6.56,-3.78 0.33,6.78C-0.29,7.83 -0.02,9.17 0.97,9.88C3.21,11.48 6.2,11.87 7.74,11.96C8.15,11.99 8.37,12.43 8.15,12.77C7.17,14.26 5.59,17.75 8.31,22.2C8.82,23.02 9.79,23.46 10.74,23.28C16.73,22.14 18.48,20.28 19.9,17.58C20.11,17.19 20.64,17.15 20.92,17.48C23.31,20.38 25.93,22.49 32.47,20.98C33.4,20.76 34.12,19.99 34.25,19.04C34.79,15.09 33.72,11.91 31.81,10.3C31.46,10 31.62,9.43 32.07,9.33C33.71,8.97 35.12,8.13 36.07,7.14Z " /><path id="路径 5" fill-rule="evenodd" style="fill:#A2DD9E" transform="translate(7.676451331410419 5.526947021484375)  rotate(0 16.17945918584664 11.484352111816406)" opacity="1" d="M26.05 0.01C24.81 0.32 23.75 0.75 22.86 1.24C21.79 1.86 20.71 2.72 19.63 3.87C18.67 5.04 18.35 5.99 18.35 5.99C18.35 5.99 18.24 5.77 18.01 5.47C17.84 5.48 17.67 5.42 17.54 5.3C16.96 4.76 16.36 4.25 15.72 3.79C15.39 3.68 15.04 3.59 14.65 3.55C7.19 10.15 2.5 8.71 0.17 6.96C-0.22 7.94 0.08 9.09 0.97 9.72C3.21 11.32 6.2 11.71 7.74 11.8C8.15 11.83 8.37 12.28 8.15 12.61C7.6 13.44 6.86 14.91 6.8 16.82C10.72 10.8 16.01 10.3 16.92 11.5C20.2218 16.2856 11.8297 22.732 11.5283 22.9636C11.523 22.9677 11.5202 22.9698 11.52 22.97C16.89 21.82 18.55 20.01 19.9 17.43C20.11 17.04 20.64 16.99 20.92 17.33C22.51 19.26 24.21 20.84 27.1 21.23C27.52 21.25 27.91 21.28 28.24 21.32C24.32 20.22 20.48 15.42 21.58 12.13C22.68 8.83 32.36 10.68 32.36 10.68C32.19 10.49 32 10.3 31.81 10.14C31.46 9.84 31.62 9.27 32.07 9.17C22.25 8.42 23.57 3.35 26.11 0C26.09 0 26.07 0.01 26.05 0.01Z" /><path id="路径 6" fill-rule="evenodd" style="fill:#000F04" transform="translate(6.574264388645901 4.258756292906256)  rotate(0 19.457634170713206 12.770524197296858)" opacity="1" d="M20.02,18.18C18.85,20.4 17.49,22.19 11.63,23.31C11.14,23.4 10.63,23.17 10.36,22.73C9.91,21.99 9.57,21.25 9.34,20.52C9.25,20.23 9.18,19.94 9.13,19.65C9.01,19.05 8.43,18.65 7.83,18.76C7.23,18.87 6.83,19.45 6.95,20.05C7.02,20.43 7.11,20.8 7.22,21.17C7.5,22.08 7.92,23 8.47,23.89C9.1,24.92 10.24,25.54 11.42,25.54C11.63,25.54 11.84,25.52 12.05,25.48C17.77,24.39 20.03,22.58 21.64,19.85C23.95,22.52 26.97,24.76 33.83,23.17C35.21,22.85 36.27,21.7 36.46,20.3C36.96,16.63 36.18,13.34 34.36,11.27C35.76,10.8 37.02,10.02 37.99,9.01C39.2,7.74 39.23,5.71 38.04,4.38C36.09,2.18 32.56,-0.12 28.57,0C25.1,0.11 21.89,1.93 19.03,5.41C17.11,3.7 12.92,0.6 8.33,1.25C5.24,1.69 2.6,3.73 0.49,7.32C-0.43,8.88 -0.02,10.84 1.44,11.89C3.5,13.35 6.07,13.9 7.85,14.1C7.71,14.36 7.58,14.63 7.47,14.91C7.36,15.18 7.36,15.49 7.48,15.76C7.59,16.03 7.81,16.24 8.08,16.35C8.36,16.46 8.66,16.46 8.93,16.35C9.2,16.23 9.42,16.02 9.53,15.74C9.71,15.3 9.93,14.88 10.19,14.49C10.5,14.01 10.54,13.38 10.28,12.87C10.02,12.35 9.5,12 8.92,11.97C7.47,11.88 4.73,11.52 2.73,10.09C2.21,9.71 2.07,9.02 2.4,8.45C4.16,5.47 6.26,3.79 8.64,3.45C12.72,2.86 16.75,6.31 17.89,7.38C18.25,7.71 18.72,7.88 19.21,7.84C19.69,7.8 20.14,7.57 20.44,7.19C22.96,3.98 25.71,2.31 28.63,2.22C31.87,2.13 34.76,4.03 36.38,5.85C36.8,6.32 36.8,7.04 36.38,7.48C35.51,8.38 34.26,9.07 32.94,9.36C32.31,9.49 31.82,9.97 31.67,10.59C31.52,11.2 31.72,11.85 32.2,12.25C33.92,13.71 34.71,16.69 34.26,20C34.19,20.49 33.81,20.9 33.32,21.01C27.21,22.43 24.97,20.44 22.88,17.89C22.51,17.45 21.94,17.21 21.37,17.27C20.79,17.33 20.29,17.67 20.02,18.18Z " /><path id="路径 7" fill-rule="evenodd" style="fill:#A2DD9E" transform="translate(26.077158994308206 1.1083488464355469)  rotate(0 4.302751899807873 6.717751067862707)" opacity="1" d="M0,11.81C-0.04,12.68 1.33,14.09 4.12,13.09C5.22,12.68 5.04,11.21 5.04,10.02C5.04,8.83 7.42,1.95 8.61,0.72C7.64,0 5.58,0 5.58,0C5.58,0 0.74,5.49 0,11.81Z " /><path id="路径 8" fill-rule="evenodd" style="fill:#000F04" transform="translate(28.42350766983435 0)  rotate(0 14.127464484232235 25.68414306640623)" opacity="1" d="" /></g></svg>