<?xml version="1.0" standalone="no"?><!DOCTYPE svg PUBLIC "-//W3C//DTD SVG 1.1//EN" "http://www.w3.org/Graphics/SVG/1.1/DTD/svg11.dtd"><svg t="1673575800389" class="icon" viewBox="0 0 1024 1024" version="1.1" xmlns="http://www.w3.org/2000/svg" p-id="3503" xmlns:xlink="http://www.w3.org/1999/xlink" width="200" height="200"><path d="M128 896V128a128 128 0 0 1 128-128h512a128 128 0 0 1 128 128v69.973333a21.333333 21.333333 0 0 1-14.506667 20.053334l-98.986666 32.853333a21.333333 21.333333 0 0 0-14.506667 20.053333v467.626667a21.333333 21.333333 0 0 0 28.16 20.053333l71.68-23.893333a21.333333 21.333333 0 0 1 28.16 20.053333V896a128 128 0 0 1-128 128H256a128 128 0 0 1-128-128z" fill="#F24922" p-id="3504"></path><path d="M896 242.773333v83.2a21.333333 21.333333 0 0 1-14.506667 20.053334L768 384V271.36a21.333333 21.333333 0 0 1 14.506667-20.053333l85.333333-28.586667a21.333333 21.333333 0 0 1 28.16 20.053333z" fill="#C6361E" p-id="3505"></path><path d="M896 370.773333v83.2a21.333333 21.333333 0 0 1-14.506667 20.053334L768 512V384l99.84-33.28a21.333333 21.333333 0 0 1 28.16 20.053333z" fill="#932415" p-id="3506"></path><path d="M896 498.773333v83.2a21.333333 21.333333 0 0 1-14.506667 20.053334L768 640v-128l99.84-33.28a21.333333 21.333333 0 0 1 28.16 20.053333z" fill="#6B160D" p-id="3507"></path><path d="M896 626.773333v83.2a21.333333 21.333333 0 0 1-14.506667 20.053334l-85.333333 28.586666a21.333333 21.333333 0 0 1-28.16-20.053333V640l99.84-33.28a21.333333 21.333333 0 0 1 28.16 20.053333z" fill="#470C07" p-id="3508"></path><path d="M789.333333 292.693333a21.333333 21.333333 0 0 1 14.506667-20.053333L896 241.92a21.333333 21.333333 0 0 0-27.733333-19.2l-85.333334 28.586667a21.333333 21.333333 0 0 0-14.506666 20.053333V384l21.333333-7.253333z" fill="#BA301E" p-id="3509"></path><path d="M789.333333 376.746667L768 384v128l21.333333-7.253333v-128z" fill="#841F14" p-id="3510"></path><path d="M789.333333 504.746667L768 512v128l21.333333-7.253333v-128z" fill="#5B120C" p-id="3511"></path><path d="M789.333333 632.746667L768 640v98.56a20.906667 20.906667 0 0 0 21.333333 20.906667z" fill="#380906" p-id="3512"></path></svg>