<svg xmlns="http://www.w3.org/2000/svg" xmlns:xlink="http://www.w3.org/1999/xlink" width="34" height="34" viewBox="0 0 34 34" fill="none"><g opacity="1" transform="translate(0 0)  rotate(0 16.8333740234375 16.8333740234375)"><path id="路径 69" fill-rule="evenodd" style="fill:#EEFAF0" transform="translate(13.827423095703125 13.827423095703125)  rotate(0 9.01788330078125 9.01788330078125)" opacity="1" d="M9.02,18.04C14,18.04 18.04,14 18.04,9.02C18.04,4.04 14,0 9.02,0C4.04,0 0,4.04 0,9.02C0,14 4.04,18.04 9.02,18.04Z " /><path id="路径 70" fill-rule="evenodd" style="fill:#1CC6A1" transform="translate(0 0)  rotate(0 16.8333740234375 16.8333740234375)" opacity="1" d="M32.16 27.05Z M0 28.56C0 29.38 0.68 30.06 1.5 30.06L13.08 30.06C13.16 32.06 14.81 33.67 16.83 33.67C18.85 33.67 20.51 32.06 20.59 30.06L32.16 30.06C32.99 30.06 33.67 29.38 33.67 28.56C33.67 27.73 32.99 27.05 32.16 27.05L30.06 27.05L30.06 15.03C30.06 8.31 24.99 2.72 18.49 1.91L18.49 1.65C18.49 0.74 17.74 0 16.83 0C15.92 0 15.18 0.74 15.18 1.65L15.18 1.91C8.68 2.72 3.61 8.31 3.61 15.03L3.61 27.05L1.5 27.05C0.68 27.05 0 27.73 0 28.56Z M16.8382 31.2596Z M18.1782 30.0596L15.4882 30.0596C15.5682 30.7396 16.1382 31.2596 16.8382 31.2596C17.5282 31.2596 18.1082 30.7396 18.1782 30.0596Z M27.0531 27.0458Z M24.0431 7.81578C23.1031 6.86578 22.0131 6.12578 20.7931 5.60578C19.5431 5.07578 18.2031 4.80578 16.8331 4.80578C15.4631 4.80578 14.1231 5.07578 12.8731 5.60578C11.6531 6.12578 10.5631 6.86578 9.62311 7.81578C8.67311 8.75578 7.93311 9.84578 7.41311 11.0658C6.88311 12.3158 6.61311 13.6558 6.61311 15.0258L6.61311 27.0458L27.0531 27.0458L27.0531 15.0258C27.0531 13.6558 26.7831 12.3158 26.2531 11.0658C25.7331 9.84578 24.9931 8.75578 24.0431 7.81578Z " /><path id="路径 71" fill-rule="evenodd" style="fill:#08B28A" transform="translate(21.793212890625 14.729217529296875)  rotate(0 1.352691650390625 4.508941650390597)" opacity="1" d="M1.35 9.02C0.61 9.02 0 8.41 0 7.67L0 1.35C0 0.61 0.61 0 1.35 0C2.1 0 2.71 0.61 2.71 1.35L2.71 7.67C2.71 8.41 2.1 9.02 1.35 9.02Z" /></g></svg>