<svg xmlns="http://www.w3.org/2000/svg" xmlns:xlink="http://www.w3.org/1999/xlink" width="35" height="35" viewBox="0 0 35 35" fill="none"><g opacity="1" transform="translate(0.0000095367431640625 0.0000152587890625)  rotate(0 17.478968620300293 17.47896385192871)"><path id="路径 61" fill-rule="evenodd" style="fill:#909090" transform="translate(0 0)  rotate(0 17.478968620300293 17.47896385192871)" opacity="0" d="M34.96 34.96L0 34.96L0 0L34.96 0L34.96 34.96Z" /><path id="路径 62" fill-rule="evenodd" style="fill:#4A90E2" transform="translate(2.9131603240966832 14.565826416015625)  rotate(0 14.565803527832031 8.739486694335938)" opacity="0.6" d="M27.68 17.48L1.46 17.48C0.49 17.48 0 16.99 0 16.02L0 1.46C0 0.49 0.49 0 1.46 0L27.68 0C28.65 0 29.13 0.49 29.13 1.46L29.13 16.02C29.13 16.99 28.65 17.48 27.68 17.48Z" /><path id="路径 63" fill-rule="evenodd" style="fill:#4A90E2" transform="translate(7.984074540106295 1.7587318420410227)  rotate(0 9.49489456364202 5.675249437666196)" opacity="1" d="M18.41,11.35C18.63,11.35 18.84,11.22 18.94,11.01C19.03,10.8 19,10.56 18.85,10.38L9.93,0.2L9.93,0.2C9.82,0.07 9.66,0 9.5,0C9.33,0 9.17,0.07 9.06,0.2L0.14,10.38C-0.01,10.56 -0.04,10.8 0.05,11.01C0.15,11.22 0.35,11.35 0.58,11.35L18.41,11.35Z " /><path id="路径 64" fill-rule="evenodd" style="fill:#4A90E2" transform="translate(13.109212875366214 13.109222412109375)  rotate(0 4.3697509765625 7.2829132080078125)" opacity="1" d="M0 0Z M0 11.65L8.74 11.65L8.74 0L0 0L0 11.65Z M0 13.1093Z M0 14.5693L8.74 14.5693L8.74 13.1093L0 13.1093L0 14.5693Z " /><path id="路径 65" fill-rule="evenodd" style="fill:#E02020" transform="translate(17.77031517028809 20.68341064453125)  rotate(0 1.45660400390625 1.456573486328125)" opacity="1" d="M1.46 0C2.26 0 2.91 0.65 2.91 1.46C2.91 2.26 2.26 2.91 1.46 2.91C0.65 2.91 0 2.26 0 1.46C0 0.65 0.65 0 1.46 0Z" /></g></svg>