<svg xmlns="http://www.w3.org/2000/svg" xmlns:xlink="http://www.w3.org/1999/xlink" width="128" height="131" viewBox="0 0 128 131" fill="none"><g opacity="1" transform="translate(-0.0000033418923521821853 -0.000011177993883393356)  rotate(0 64.00000167094615 65.18617425965124)"><path id="路径 9" fill-rule="evenodd" style="fill:#FFA750" transform="translate(6.65570475754744 6.7643010339509)  rotate(0 59.70949136370564 60.84849644500689)" opacity="1" d="M88.6 9.3C88.39 9.46 88.12 9.48 87.89 9.36C84.91 7.75 81.8 6.41 78.58 5.34C77.72 5.05 77.26 4.12 77.59 3.27L77.69 3C78.25 1.55 77.18 0 75.63 0L44.37 0C42.78 0 41.71 1.61 42.32 3.06C42.68 3.93 42.22 4.9 41.33 5.18C38.03 6.25 34.82 7.61 31.76 9.24C31.53 9.36 31.27 9.33 31.07 9.19C26.22 5.74 19.76 5.19 19.37 5.16C19.35 5.16 19.34 5.16 19.33 5.15L6.21 3.26C5.86 3.21 5.53 3.43 5.45 3.77C5.09 5.43 4.04 10.52 2.9 19.19C2.18 25.78 4.2 31 6.34 34.54C6.45 34.73 6.47 34.97 6.36 35.18C2.31 43.21 0.13 52.07 0.01 61.07C-0.19 74.28 3.99 86.6 11.2 96.64C11.28 96.75 11.32 96.88 11.33 97L12.18 119.62C12.23 120.77 13.17 121.69 14.33 121.69L18.42 121.69C19.23 121.69 19.99 121.22 20.35 120.49L24.41 112.54C24.59 112.18 28.41 112.75 28.75 112.96C37.39 118.26 47.48 121.42 58.26 121.68C70.26 121.97 81.46 118.7 90.93 112.87C91.26 112.66 91.7 112.79 91.88 113.15L95.53 120.5C95.89 121.24 96.64 121.7 97.46 121.7L105.39 121.7C106.55 121.7 107.5 120.78 107.54 119.62L108.41 96.71C108.42 96.58 108.46 96.46 108.53 96.35C115.38 86.63 119.42 74.78 119.42 61.99C119.42 52.48 117.18 43.5 113.24 35.52C113.13 35.32 113.14 35.08 113.27 34.88C115.49 31.35 117.67 26 116.93 19.17C115.79 10.5 114.74 5.42 114.38 3.75C114.3 3.41 113.97 3.19 113.62 3.24L100.5 5.14C100.49 5.14 100.48 5.14 100.46 5.14C100.07 5.17 93.47 5.74 88.6 9.3Z M58.2461 92.3734C70.7761 92.3734 81.2261 81.8434 81.2261 69.3134C81.2261 56.7834 69.3761 44.8734 56.8461 44.8734C44.3161 44.8734 33.0761 58.5334 33.0761 71.0634C33.0761 83.5934 45.7161 92.3734 58.2461 92.3734Z M58.2461 92.3734C58.2461 92.3734 58.2461 92.3734 58.2461 92.3734 " /><path id="路径 10" fill-rule="evenodd" style="fill:#333333" transform="translate(0 0)  rotate(0 64.00000167094615 65.18617425965124)" opacity="1" d="M111.2 130.37C113.64 130.37 115.63 128.46 115.72 126.01L116.6 102.8C124.06 92.06 128 79.47 128 66.36C128 56.72 125.9 47.46 121.76 38.81C123.98 35.03 126.22 29.21 125.41 21.83C124.22 12.86 123.14 7.56 122.73 5.7C122.4 4.19 120.93 3.17 119.38 3.39L105.87 5.34C104.87 5.43 98.55 6.08 93.34 9.49C90.59 8.07 87.74 6.84 84.85 5.85C85.23 4.53 85 3.12 84.22 1.99C83.37 0.74 81.95 0 80.44 0L48.14 0C46.6 0 45.17 0.77 44.32 2.04C43.6 3.12 43.38 4.44 43.68 5.67C40.68 6.68 37.72 7.92 34.89 9.37C29.72 6.07 23.53 5.43 22.54 5.34L9.03 3.39C7.48 3.17 6.03 4.18 5.69 5.7C5.27 7.57 4.19 12.89 3.01 21.88C2.23 29.02 4.33 34.7 6.43 38.41C2.31 46.87 0.15 55.94 0.01 65.39C-0.2 78.95 3.86 91.99 11.72 103.12L12.59 126.01C12.68 128.45 14.66 130.36 17.1 130.36L25.3 130.36C27.03 130.36 28.59 129.41 29.35 127.85L32.31 121.89C41.5 127.18 51.88 130.1 62.45 130.35C74.24 130.62 85.79 127.68 95.95 121.81L98.95 127.85C99.72 129.41 101.27 130.37 103 130.37L111.2 130.37L111.2 130.37Z M117.409 37.1457C119.379 34.0257 121.569 28.9357 120.849 22.3857C119.929 15.3757 119.069 10.6757 118.559 8.1557L106.489 9.9057C106.449 9.9057 106.379 9.9157 106.339 9.9157C106.029 9.9357 99.7394 10.4757 95.2194 13.7857C94.2894 14.4557 93.0494 14.5457 92.0394 14.0057C89.0794 12.4057 85.9794 11.0657 82.7894 10.0057C81.7594 9.6557 80.9194 8.9157 80.4494 7.9357C79.9894 6.9657 79.9494 5.8657 80.3394 4.8557L80.4394 4.5757L48.1494 4.5957C48.5694 5.5857 48.5594 6.7357 48.0994 7.7157C47.6394 8.7257 46.7694 9.4957 45.7194 9.8357C42.4294 10.8957 39.2494 12.2457 36.1894 13.8657C35.1994 14.3957 33.9894 14.3157 33.0694 13.6557C28.5594 10.4457 22.3994 9.9257 22.1394 9.9057C22.0794 9.9057 21.9794 9.8957 21.9294 9.8857L9.86941 8.1457C9.35941 10.6657 8.49941 15.3757 7.57941 22.4257C7.01941 27.4957 8.09941 32.3457 10.8094 36.7957C11.3494 37.6857 11.3894 38.7557 10.9294 39.6857C6.86941 47.7357 4.73941 56.4057 4.60941 65.4457C4.41941 78.1757 8.25941 90.4257 15.7394 100.836C16.0794 101.306 16.2794 101.866 16.2994 102.456L17.1794 125.766L25.3094 125.766L28.9794 118.296C29.3494 117.546 30.0194 116.986 30.8194 116.756C31.6294 116.526 32.4994 116.636 33.2194 117.086C42.0794 122.506 52.2194 125.506 62.5694 125.746C74.0594 126.016 85.3094 122.996 95.0694 116.986C95.5294 116.716 96.0794 116.556 96.6294 116.556L96.6294 116.556C96.8994 116.556 97.1794 116.596 97.4494 116.676C98.2594 116.906 98.9294 117.476 99.3094 118.226L103.069 125.816L111.139 125.786L112.029 102.166C112.049 101.596 112.239 101.046 112.569 100.566C119.659 90.5157 123.409 78.6957 123.409 66.3757C123.409 57.1457 121.339 48.2957 117.259 40.0557C116.799 39.1257 116.849 38.0357 117.409 37.1457Z M30.7984 121.006C30.8084 121.006 30.8084 121.006 30.7984 121.006 M30.7984 121.006C30.8084 121.006 30.8084 121.006 30.7984 121.006 M30.7984 121.006 M121.373 38.0143C121.373 38.0243 121.373 38.0143 121.373 38.0143 M121.373 38.0143C121.373 38.0143 121.373 38.0243 121.373 38.0143 " /><path id="路径 11" fill-rule="evenodd" style="fill:#FF917B" transform="translate(49.43860197470481 62.0004994592439)  rotate(0 17.430633544921903 17.430648803710938)" opacity="1" d="M17.43,34.86C27.06,34.86 34.86,27.06 34.86,17.43C34.86,7.8 27.06,0 17.43,0C7.8,0 0,7.8 0,17.43C0,27.06 7.8,34.86 17.43,34.86Z " /><path id="路径 12" fill-rule="evenodd" style="fill:#333333" transform="translate(42.410571579197054 55.29276630494708)  rotate(0 21.58940124511716 21.58940124511716)" opacity="1" d="M21.59 43.18Z M43.18 21.59C43.18 9.68 33.49 0 21.59 0C9.68 0 0 9.68 0 21.59C0 33.49 9.68 43.18 21.59 43.18C33.49 43.18 43.18 33.49 43.18 21.59Z M21.5906 3.85065Z M21.5906 39.3306C31.3706 39.3306 39.3306 31.3706 39.3306 21.5906C39.3306 11.8106 31.3706 3.85065 21.5906 3.85065C11.8106 3.85065 3.85065 11.8106 3.85065 21.5906C3.85065 31.3706 11.8106 39.3306 21.5906 39.3306Z " /><path id="路径 13" fill-rule="evenodd" style="fill:#333333" transform="translate(24.464435104587565 35.61922809693921)  rotate(0 39.79861450195315 20.44384765625)" opacity="1" d="M28.1621 40.8911Z M35.2421 35.6411C35.2421 32.7611 32.0621 30.4011 28.1621 30.4011C24.2621 30.4011 21.0821 32.7511 21.0821 35.6411C21.0821 38.5311 24.2521 40.8911 28.1621 40.8911C32.0621 40.8911 35.2421 38.5311 35.2421 35.6411Z M28.1611 34.2517Z M28.1611 37.0417C29.2011 37.0417 30.0411 36.4117 30.0411 35.6417C30.0411 34.8717 29.1911 34.2517 28.1611 34.2517C27.1211 34.2517 26.2811 34.8717 26.2811 35.6417C26.2811 36.4117 27.1211 37.0417 28.1611 37.0417Z M51.4972 40.8911Z M58.5772 35.6411C58.5772 32.7611 55.3972 30.4011 51.4972 30.4011C47.5972 30.4011 44.4172 32.7511 44.4172 35.6411C44.4172 38.5311 47.5972 40.8911 51.4972 40.8911C55.4072 40.8911 58.5772 38.5311 58.5772 35.6411Z M51.4962 34.2517Z M51.4962 37.0417C52.5362 37.0417 53.3762 36.4117 53.3762 35.6417C53.3762 34.8717 52.5362 34.2517 51.4962 34.2517C50.4562 34.2517 49.6162 34.8717 49.6162 35.6417C49.6162 36.4117 50.4562 37.0417 51.4962 37.0417Z M23.29 11.51Z M20.69 9.59C20.69 10.65 21.85 11.51 23.29 11.51C24.73 11.51 25.89 10.65 25.89 9.59C25.89 4.3 20.09 0 12.95 0C5.81 0 0 4.3 0 9.59C0 10.65 1.16 11.51 2.6 11.51C4.04 11.51 5.2 10.65 5.2 9.59C5.2 6.42 8.67 3.85 12.95 3.85C17.22 3.85 20.69 6.42 20.69 9.59Z M76.996 11.51Z M66.656 3.85C70.926 3.85 74.396 6.42 74.396 9.59C74.396 10.65 75.556 11.51 76.996 11.51C78.436 11.51 79.596 10.65 79.596 9.59C79.596 4.3 73.796 0 66.656 0C59.516 0 53.706 4.3 53.706 9.59C53.706 10.65 54.866 11.51 56.306 11.51C57.746 11.51 58.906 10.65 58.906 9.59C58.906 6.42 62.376 3.85 66.656 3.85Z " /></g></svg>