<svg xmlns="http://www.w3.org/2000/svg" xmlns:xlink="http://www.w3.org/1999/xlink" width="33" height="27" viewBox="0 0 33 27" fill="none"><g opacity="1" transform="translate(-0.000019073486328125 0.0000019073486328125)  rotate(0 16.00000603603658 13.352240562438972)"><path id="路径 33" fill-rule="evenodd" style="fill:#CAE4FF" transform="translate(2.0516548156738708 7.619016647338881)  rotate(0 14.29366302490235 9.193206787109375)" opacity="1" d="M0 13.2771Z M0 18.3871L4.08 18.3871L4.08 13.2771L0 13.2771L0 18.3871Z M8.16781 5.10931Z M8.16781 18.3893L12.2478 18.3893L12.2478 5.10931L8.16781 5.10931L8.16781 18.3893Z M15.3279 9.19321Z M15.3279 18.3832L19.4079 18.3832L19.4079 9.19321L15.3279 9.19321L15.3279 18.3832Z M24.5034 0Z M24.5034 17.36L28.5834 17.36L28.5834 0L24.5034 0L24.5034 17.36Z " /><path id="路径 34" fill-rule="evenodd" style="fill:#0972E7" transform="translate(1.9778486995324585 0)  rotate(0 14.027642098615352 8.72960011388114)" opacity="1" d="M27.42 0.61C26.57 -0.2 25.23 -0.2 24.38 0.61C23.76 1.23 23.59 2.15 23.92 2.96L18.78 9.4C18.05 9.13 17.22 9.26 16.62 9.77L12.18 7.56C12.18 7.5 12.22 7.47 12.22 7.42C12.22 6.85 11.99 6.3 11.6 5.9C10.75 5.08 9.41 5.08 8.56 5.9C7.96 6.51 7.76 7.43 8.1 8.23L2.97 13.36C2.18 13.04 1.28 13.23 0.64 13.82C-0.21 14.65 -0.21 16.01 0.62 16.86C1.05 17.25 1.59 17.48 2.16 17.46C3.34 17.46 4.32 16.49 4.3 15.3C4.3 15.02 4.25 14.75 4.14 14.49L9.25 9.38C9.51 9.48 9.78 9.54 10.06 9.54C10.57 9.54 11.05 9.34 11.44 9.01L15.86 11.22C15.86 11.27 15.83 11.31 15.83 11.36C15.83 12.54 16.78 13.52 17.96 13.52C19.15 13.52 20.12 12.56 20.12 11.38C20.12 11.09 20.07 10.81 19.96 10.55L25.11 4.11C26.2 4.55 27.46 4.02 27.9 2.93C28.22 2.13 28.04 1.21 27.42 0.61Z M25.5705 1.77828Z M25.5705 2.48828C25.7605 2.65828 26.0605 2.65828 26.2605 2.48828C26.4305 2.28828 26.4305 2.00828 26.2605 1.80828C26.0805 1.59828 25.7605 1.59828 25.5705 1.77828C25.3705 1.96828 25.3705 2.26828 25.5705 2.48828Z M17.6502 11.0095Z M17.6502 11.6995C17.8402 11.8695 18.1402 11.8695 18.3402 11.6995C18.5302 11.4995 18.5302 11.1995 18.3402 11.0095C18.1402 10.8095 17.8402 10.8095 17.6502 11.0095C17.4502 11.1995 17.4502 11.4995 17.6502 11.6995Z M9.72647 7.04931Z M9.72647 7.73931C9.91647 7.90931 10.2165 7.90931 10.4165 7.73931C10.6065 7.53931 10.6065 7.23931 10.4165 7.04931C10.2165 6.84931 9.91647 6.84931 9.72647 7.04931C9.56647 7.23931 9.56647 7.55931 9.72647 7.73931Z M1.8267 14.9696Z M1.8267 15.6596C2.0167 15.8296 2.3167 15.8296 2.5167 15.6596C2.7067 15.4796 2.7067 15.1596 2.5167 14.9696C2.3167 14.7696 2.0167 14.7696 1.8267 14.9696C1.6967 15.1796 1.6667 15.4796 1.8267 15.6596Z " /><path id="路径 35" fill-rule="evenodd" style="fill:#0972E7" transform="translate(0 6.567823410034194)  rotate(0 16.00000603603658 10.068328857421875)" opacity="1" d="M31.19 18.47Z M31.19 18.47C31.19 18.47 31.19 18.47 31.19 18.47Z M6.12 13.19L2.16 13.19C1.7 13.19 1.33 13.56 1.33 14.02L1.33 18.47L0.83 18.47C0.37 18.47 0 18.85 0 19.31C0 19.77 0.37 20.14 0.83 20.14L31.17 20.14C31.63 20.14 32 19.77 32 19.31C32.02 18.85 31.65 18.47 31.19 18.47L30.69 18.47L30.69 0.83C30.69 0.37 30.32 0 29.86 0L25.9 0C25.44 0 25.07 0.37 25.07 0.83L25.07 18.47L22.77 18.47L22.77 10.06C22.77 9.6 22.4 9.23 21.94 9.23L17.98 9.23C17.52 9.23 17.15 9.6 17.15 10.06L17.15 18.47L14.87 18.47L14.87 6.12C14.87 5.66 14.5 5.29 14.04 5.29L10.08 5.29C9.62 5.29 9.25 5.66 9.25 6.12L9.25 18.47L6.95 18.47L6.95 14.02C6.95 13.56 6.58 13.19 6.12 13.19Z M2.98779 18.4706Z M5.28779 18.4706L5.28779 14.8506L2.98779 14.8506L2.98779 18.4706L5.28779 18.4706Z M10.9081 18.4703Z M13.2081 18.4703L13.2081 6.93027L10.9081 6.93027L10.9081 18.4703L13.2081 18.4703Z M18.8284 18.4704Z M21.1284 18.4704L21.1284 10.8904L18.8284 10.8904L18.8284 18.4704L21.1284 18.4704Z M26.7487 18.4719Z M29.0487 18.4719L29.0487 1.66187L26.7487 1.66187L26.7487 18.4719L29.0487 18.4719Z " /></g></svg>