<svg xmlns="http://www.w3.org/2000/svg" xmlns:xlink="http://www.w3.org/1999/xlink" width="48" height="48" viewBox="0 0 48 48" fill="none"><g opacity="1" transform="translate(0 0)  rotate(0 24 24)"><path id="椭圆 1" fill-rule="evenodd" style="fill:#EFEFEF" transform="translate(0 0)  rotate(0 24 24)" opacity="1" d="M24,0C10.75,0 0,10.75 0,24C0,37.25 10.75,48 24,48C37.25,48 48,37.25 48,24C48,10.75 37.25,0 24,0Z " /><path id="矩形 37" fill-rule="evenodd" style="fill:#8F4CD7" transform="translate(10 22)  rotate(0 14 2)" opacity="1" d="M2,4L26,4C26.53,4 27.04,3.79 27.41,3.41C27.79,3.04 28,2.53 28,2L28,2C28,1.47 27.79,0.96 27.41,0.59C27.04,0.21 26.53,0 26,0L2,0C1.47,0 0.96,0.21 0.59,0.59C0.21,0.96 0,1.47 0,2L0,2C0,2.53 0.21,3.04 0.59,3.41C0.96,3.79 1.47,4 2,4Z " /><path id="矩形 38" fill-rule="evenodd" style="fill:#8F4CD7" transform="translate(10 22)  rotate(90 14 2)" opacity="1" d="M2,4L26,4C26.53,4 27.04,3.79 27.41,3.41C27.79,3.04 28,2.53 28,2L28,2C28,1.47 27.79,0.96 27.41,0.59C27.04,0.21 26.53,0 26,0L2,0C1.47,0 0.96,0.21 0.59,0.59C0.21,0.96 0,1.47 0,2L0,2C0,2.53 0.21,3.04 0.59,3.41C0.96,3.79 1.47,4 2,4Z " /></g></svg>